<?xml version="1.0" encoding="utf-8"?>
<!-- Generator: Adobe Illustrator 27.7.0, SVG Export Plug-In . SVG Version: 6.00 Build 0)  -->
<svg version="1.1" id="Capa_1" xmlns="http://www.w3.org/2000/svg" xmlns:xlink="http://www.w3.org/1999/xlink" x="0px" y="0px"
	 viewBox="0 0 100 100" style="enable-background:new 0 0 100 100;" xml:space="preserve">
<style type="text/css">
	.st0{fill:#515151;}
</style>
<g>
	<path class="st0" d="M50,21.88C34.5,21.88,21.88,34.5,21.88,50c0,15.5,12.61,28.11,28.12,28.11c15.5,0,28.12-12.61,28.12-28.11
		C78.12,34.5,65.5,21.88,50,21.88z M50,72.15c-12.21,0-22.15-9.94-22.15-22.15c0-12.21,9.94-22.15,22.15-22.15
		c12.21,0,22.15,9.94,22.15,22.15C72.15,62.21,62.21,72.15,50,72.15z"/>
	<path class="st0" d="M80.45,13.85c-2.3,0-4.18,1.87-4.18,4.18c0,2.3,1.87,4.18,4.18,4.18c2.3,0,4.18-1.87,4.18-4.18
		C84.62,15.73,82.75,13.85,80.45,13.85z"/>
	<path class="st0" d="M97.41,16.64c-1.3-3.36-3.01-5.98-5.54-8.51c-2.53-2.53-5.15-4.23-8.51-5.54c-3.5-1.36-7.19-2.06-11.98-2.28
		C65.86,0.06,64.02,0,50,0C35.98,0,34.14,0.06,28.62,0.31c-4.79,0.22-8.49,0.92-11.98,2.28c-3.36,1.31-5.98,3.01-8.51,5.54
		c-2.53,2.53-4.23,5.15-5.54,8.51c-1.36,3.5-2.06,7.19-2.28,11.98C0.06,34.14,0,35.98,0,50s0.06,15.86,0.31,21.38
		c0.22,4.79,0.92,8.49,2.28,11.98c1.3,3.36,3.01,5.98,5.54,8.51c2.53,2.53,5.15,4.23,8.51,5.54c3.5,1.36,7.19,2.06,11.98,2.28
		C34.14,99.94,35.98,100,50,100c14.02,0,15.86-0.06,21.38-0.31c4.79-0.22,8.49-0.92,11.98-2.28c3.36-1.31,5.98-3.01,8.51-5.54
		c2.53-2.53,4.24-5.15,5.54-8.51c1.36-3.5,2.06-7.19,2.28-11.98C99.94,65.86,100,64.02,100,50c0-14.02-0.06-15.86-0.31-21.38
		C99.47,23.84,98.77,20.14,97.41,16.64z M94.46,71.14c-0.25,5.38-1.16,8.34-1.93,10.33c-1.04,2.68-2.35,4.69-4.36,6.7
		c-2.01,2.01-4.02,3.32-6.7,4.36c-1.98,0.77-4.95,1.69-10.33,1.93c-5.51,0.25-7.17,0.31-21.14,0.31c-13.97,0-15.62-0.05-21.14-0.31
		c-5.38-0.24-8.34-1.16-10.33-1.93c-2.68-1.04-4.69-2.35-6.7-4.36c-2.01-2.02-3.32-4.02-4.36-6.7c-0.77-1.98-1.69-4.95-1.93-10.33
		C5.29,65.61,5.24,63.95,5.24,50c0-13.95,0.05-15.61,0.31-21.14c0.25-5.38,1.16-8.34,1.93-10.33c1.04-2.68,2.35-4.69,4.36-6.7
		c2.01-2.01,4.02-3.32,6.7-4.36c1.98-0.77,4.95-1.69,10.33-1.93C34.39,5.29,36.05,5.24,50,5.24s15.61,0.05,21.14,0.31
		c5.38,0.25,8.34,1.16,10.33,1.93c2.68,1.04,4.69,2.35,6.7,4.36c2.01,2.01,3.32,4.02,4.36,6.7c0.77,1.98,1.69,4.95,1.93,10.33
		c0.25,5.53,0.31,7.19,0.31,21.14S94.71,65.61,94.46,71.14z"/>
</g>
</svg>
