<?xml version="1.0" encoding="utf-8"?>
<!-- Generator: Adobe Illustrator 27.7.0, SVG Export Plug-In . SVG Version: 6.00 Build 0)  -->
<svg version="1.1" id="Capa_1" xmlns="http://www.w3.org/2000/svg" xmlns:xlink="http://www.w3.org/1999/xlink" x="0px" y="0px"
	 viewBox="0 0 100 100" style="enable-background:new 0 0 100 100;" xml:space="preserve">
<style type="text/css">
	.st0{fill:#515151;}
</style>
<g>
	<rect x="1.64" y="33.23" class="st0" width="20.74" height="66.67"/>
	<path class="st0" d="M12.02,0.09C5.37,0.09,0,5.47,0,12.11c0,6.63,5.37,12.02,12.02,12.02c6.63,0,12.01-5.38,12.01-12.02
		C24.03,5.47,18.65,0.09,12.02,0.09z"/>
	<path class="st0" d="M75.14,31.58c-10.08,0-16.84,5.53-19.61,10.77h-0.28v-9.12H35.39v66.67h20.7V66.93
		c0-8.7,1.65-17.13,12.43-17.13c10.63,0,10.77,9.95,10.77,17.68v32.42H100V63.34C100,45.39,96.12,31.58,75.14,31.58z"/>
</g>
</svg>
