<?xml version="1.0" encoding="utf-8"?>
<!-- Generator: Adobe Illustrator 27.6.1, SVG Export Plug-In . SVG Version: 6.00 Build 0)  -->
<svg version="1.1" id="Capa_1" xmlns="http://www.w3.org/2000/svg" xmlns:xlink="http://www.w3.org/1999/xlink" x="0px" y="0px"
	 viewBox="0 0 1314 375.33" style="enable-background:new 0 0 1314 375.33;" xml:space="preserve">
<style type="text/css">
	.st0{fill:#F78721;}
</style>
<g>
	<path class="st0" d="M194.08,174.13c-7.35-0.98-14.71-1.09-20.99-0.45c-6.29,0.65-11.48,1.97-14.71,4.07
		c-2.92,1.94-4.69,3.14-5.7,3.9c-0.53,0.39-0.87,0.67-1.12,0.93c-0.14,0.14-0.25,0.25-0.39,0.56c-0.08,0.17-0.2,0.42-0.14,0.84
		c0.03,0.22,0.22,0.37,0.36,0.56c-1.6,1.91-3,4.38-4.04,7.58c-1.35,4.27-2.19,9.43-2.25,14.85c-0.06,10.83,3.09,22.82,12.07,30.11
		c8.87,7.18,20.26,9.65,31.49,9.23c11.25-0.42,22.34-3.68,30.81-8.17c8.5-4.52,14.31-10.78,16.36-18.63
		c2.05-7.83,0.28-17.09-5.75-27.36C223.75,181.4,208.82,176.06,194.08,174.13z"/>
	<path class="st0" d="M239.97,168.29c-8.45-11-24.3-18.72-40.3-21.89c-16-3.17-32.16-1.82-41.25,6.46
		c-4.27,3.87-7.55,6.57-10.19,8.78c-2.67,2.19-4.74,3.9-6.62,5.81c-3.76,3.85-6.57,8.45-11.56,19.06
		c-5.25,11.2-2.97,27.5,4.01,42.18c6.99,14.68,18.16,29.33,32.72,33.82c14.45,4.46,30.7,0.65,44.65-5.3
		c13.92-5.92,26.21-15.44,34.24-25.54c8-10.16,10.8-20.74,9.43-31.38C253.69,189.65,248.19,178.98,239.97,168.29z M243.67,229.86
		c-7.69,9.74-19.73,19.08-33.28,24.84c-13.53,5.75-27.73,5.78-41.45,1.54c-13.61-4.21-25.88-14.56-32.61-28.71
		c-6.74-14.14-8.67-29.78-3.99-39.74c4.94-10.55,7.58-14.79,11.06-18.35c3.51-3.59,8.08-6.65,16.7-14.51
		c8.11-7.35,23.66-8.95,39.18-5.89c15.55,3.09,30.95,10.78,38.76,20.91c8.03,10.47,13.22,20.68,14.54,30.62
		C253.86,210.5,251.36,220.18,243.67,229.86z"/>
	<path class="st0" d="M230.99,141.52c-12.07-11.31-25.76-19.76-39.43-20.01c-26.77-0.51-45.8,12.94-58.96,22.2
		c-1.68,1.18-3.09,2.3-4.32,3.37c-3.65,3.25-5.56,6.12-7.3,9.06c-2.36,3.9-4.52,7.97-10.89,14c-6.79,6.48-10.86,17.51-11.34,29.66
		c-0.45,12.15,2.67,25.43,10.55,36.37c15.52,21.52,40.95,40.27,68.25,45.72c13.89,2.75,26.86-2.55,38.64-10.36
		c11.76-7.8,22.45-18.13,31.88-25.68c19.36-15.55,27.14-41.73,12.6-66.54C253.52,167.08,243.06,152.86,230.99,141.52z
		 M246.51,243.67c-9.57,7.69-20.21,17.93-31.71,25.57c-11.53,7.63-23.83,12.57-36.85,9.99c-26.52-5.28-48.89-23.1-63.99-44.06
		c-7.47-10.3-10.47-22.98-9.99-34.55c0.45-11.59,4.38-22,10.5-27.84c6.57-6.23,6.34-11.31,8.67-15.15c1.15-1.94,2.27-3.7,3.9-5.56
		c1.63-1.88,3.79-3.82,7.02-6.09c13.16-9.29,31.6-22.25,57.56-21.78c12.68,0.25,25.9,8.25,37.72,19.34
		c11.81,11.06,22.17,25.15,29.21,37.16C272.41,204.35,265.09,228.77,246.51,243.67z"/>
	<path class="st0" d="M258.41,140.42c-13.27-15.88-29.02-29.52-41.45-36.82c-24.58-14.42-41.09-17.46-61.63-12.1
		c-7.83,2.02-14.14,6.17-19.87,11.37c-1.91,1.74-3.73,3.62-5.53,5.56c-7.18,7.77-13.84,16.92-22.09,25.34
		c-16.84,17.2-29.16,43.44-36.43,67.94c-3.76,12.63-0.31,24.25,6.4,34.52c6.74,10.3,16.73,19.39,26.44,27.45
		c19.45,16.17,48.3,35.78,76.5,31.29c28.04-4.46,52.68-26.61,72.35-41.73c9.88-7.61,18.58-14.51,24.28-23.69
		c5.67-9.2,8.25-20.68,6.01-37.02C281.11,175.98,271.68,156.31,258.41,140.42z M275.22,228.01c-5.36,8.67-13.81,15.44-23.66,23.01
		c-19.79,15.24-44.23,36.96-71.28,41.28c-26.89,4.29-51.53-17.96-70.78-33.99c-9.65-8-19.45-16.98-25.9-26.8
		c-6.43-9.85-9.54-20.4-6.03-32.16c7.18-24.19,15.72-46.89,32.11-63.62c8.39-8.59,15.07-17.76,22.11-25.37
		c1.77-1.91,3.54-3.73,5.39-5.42c5.5-5.02,11.48-8.9,18.86-10.83c19.95-5.19,33.96-0.93,58.35,13.39
		c12.04,7.07,27.67,20.54,40.75,36.2c13.08,15.66,23.57,33.54,25.73,49.14C283.05,208.7,280.6,219.34,275.22,228.01z"/>
	<path class="st0" d="M283.75,138.63c-16.47-22.25-20.07-33.2-35.39-48.72c-7.86-8-18.38-11.39-29.61-12.49
		c-11.2-1.1-23.18,0.08-34.24,1.37c-22.42,2.64-46.59,14.82-66.71,24.28c-7.63,3.59-14.37,7.83-20.26,12.77
		c-9.85,8.22-17.26,18.3-22.4,30.28c-3.93,9.26-9.6,16.25-14.48,24.47c-4.88,8.22-10.92,17.03-11.34,30.93
		c-0.42,14.23,7.69,31.32,17.9,45.6c10.19,14.31,22.79,27.98,32.92,37.55c20.21,19.11,38.14,29.75,66.9,27.64
		c28.82-2.1,68.9-20.43,90.53-33c21.5-12.46,25.34-13.41,40.5-36.46c7.91-12.04,8.36-32.36,4.94-52.54
		C299.6,170.17,292.25,150.13,283.75,138.63z M295.98,241.26c-15.07,22.93-18.1,23.18-39.65,35.7
		c-21.41,12.4-61.57,30.62-89.55,32.67c-28.04,2.05-43.16-9.43-63.26-28.43c-10.05-9.51-22.73-22.59-32.75-36.65
		c-10.02-14.06-17.32-29.07-16.92-42.18c0.42-13.41,4.24-22.28,8.98-30.28c4.77-8,10.55-15.13,14.65-24.78
		c4.97-11.62,12.12-21.38,21.67-29.33c5.73-4.8,12.32-8.92,19.79-12.43c20.15-9.49,44.17-21.5,65.95-24.05
		c11-1.29,20.12,0.87,30.98,1.94c10.89,1.07,21.78,2.5,29.07,9.91c14.99,15.21,20.21,24.44,36.82,46.92
		c8.05,10.86,15.41,30.67,18.75,50.46C303.87,210.53,303.17,230.34,295.98,241.26z"/>
	<path class="st0" d="M305.83,132.26c-10.24-18.16-23.49-39.63-41.39-54.53c-9.15-7.58-19.9-9.96-31.1-10.72
		c-11.2-0.73-22.87,0.14-34.01-0.73c-23.07-1.85-53.35,6.12-68.81,16.22c-7.49,4.88-12.12,10.27-17.32,12.29
		c-5.22,1.99-9.91,3.65-14.99,7.1c-7.47,5.02-14.34,9.68-20.88,15.38c-2.19,1.88-4.35,3.9-6.45,6.09
		c-8.28,8.5-13.13,10.75-22.87,30.25c-5.02,10.08-9.21,25.4-8.5,41.93c0.7,16.56,6.34,34.32,13.25,47.29
		c13.53,25.26,23.04,46.25,50.57,68.67c14.03,11.39,34.8,16.47,56.35,16.73c21.55,0.25,43.92-4.29,61.18-12.46
		c34.29-16.19,65.61-41.37,85.68-62.86c20.18-21.67,25.85-46,22.37-68.11C325.42,162.79,315.99,150.3,305.83,132.26z M304.68,250.97
		c-19.84,21.27-50.99,46.31-84.92,62.33c-16.87,7.97-37.69,9.37-58.88,9.12c-21.19-0.28-40.86-6.12-54.16-16.95
		c-27.14-22.09-36.29-39.29-49.87-64.66c-6.6-12.38-12.1-28.6-12.77-44.82c-0.7-16.22,1.54-31.71,6.2-41.06
		c9.63-19.28,14.71-18.41,23.15-27.11c2.05-2.13,3.42-6.6,5.56-8.45c6.4-5.58,13.19-10.16,20.63-15.21
		c4.83-3.26,9.29-4.83,14.54-6.85c5.22-2.02,11.23-4.46,18.94-9.49c14.96-9.77,44-20.63,66.12-18.89
		c11.42,0.93,23.1,0.03,34.07,0.76c10.94,0.73,21.08,3.03,29.61,10.13c17.43,14.51,30.59,35.67,40.75,53.74
		c10.27,18.21,19.36,30.17,22.73,51.58C329.75,206.46,324.41,229.81,304.68,250.97z"/>
	<path class="st0" d="M301.37,94.59c-18.1-23.8-34.69-45.91-62.53-54.61c-27.81-8.67-61.8-5-84.5,5.84
		c-22.56,10.78-33.09,22.56-52.93,33.82c-15.04,8.53-31.88,20.09-45.63,32.47c-4.57,4.13-8.84,8.34-12.54,12.54
		c-14.79,16.78-21.92,29.35-27.95,54.78c-6.15,25.99,6.06,64.8,17.9,91.43c11.93,26.8,30.7,45.24,55.31,59.86
		c24.75,14.76,59.64,20.94,84.61,27.25c12.77,3.26,21.53,0.65,29.83-4.27c8.34-4.94,16.36-12.07,28.4-18.24
		c24.58-12.6,63.79-42.46,83.8-60.53c19.98-18.07,26.46-28.54,34.01-45.16c3.76-8.28,6.99-15.24,7.91-23.24
		c0.93-8-0.51-16.89-5.78-28.85C340.77,153.95,319.59,118.51,301.37,94.59z M351.3,206.43c-0.87,7.44-6.37,14.37-10.13,22.65
		c-7.49,16.5-13.58,26.41-33.42,44.31c-19.81,17.91-53.41,47.26-77.57,59.64c-12.32,6.31-20.49,13.56-28.51,18.3
		c-8.03,4.77-15.8,7.13-28.04,4.04c-25.12-6.37-59.83-12.63-83.94-26.97c-24.25-14.45-42.52-32.41-54.19-58.6
		c-11.73-26.35-23.55-65.05-17.74-89.61c5.98-25.17,12.71-37.04,27.36-53.66c3.65-4.13,7.83-8.28,12.35-12.32
		C71.05,102,87.78,90.47,102.68,82.02c20.15-11.42,30.56-23.13,52.76-33.73c22.06-10.52,55.71-14.14,82.76-5.73
		c26.97,8.42,43.11,29.89,61.24,53.69c18.02,23.69,33.48,59.66,43.86,83.07C348.44,190.97,352.17,198.99,351.3,206.43z"/>
</g>
<g>
	<g>
		<path class="st0" d="M504.11,135.83H466.2v23.02h43.02v7.56h-51.16V96.65h51.16v7.56H466.2v24.07h37.91V135.83z"/>
		<path class="st0" d="M590.39,96.65h9.42l-27.09,43.14v26.63h-8.14v-26.75L537.6,96.65h9.54l19.42,31.16l1.74,3.72h1.05l1.86-3.72
			L590.39,96.65z"/>
		<path class="st0" d="M679.7,135.83h-37.91v23.02h43.02v7.56h-51.16V96.65h51.16v7.56h-43.02v24.07h37.91V135.83z"/>
		<path class="st0" d="M778.42,159.44c0,0-7.79,8.49-24.88,8.49c-23.37,0-37.44-16.4-37.44-36.4s14.07-36.4,37.44-36.4
			c17.21,0,24.88,8.49,24.88,8.49l-9.65,12.91c0,0-7.21-5.23-15-5.23c-11.86,0-20.23,8.14-20.23,20.23
			c0,12.09,8.37,20.23,20.23,20.23c9.88,0,15-5.23,15-5.23L778.42,159.44z"/>
		<path class="st0" d="M837.85,96.65h2.79l36.63,69.77H858.2l-3.84-8.26h-30.35l-3.72,8.26h-18.95L837.85,96.65z M839.59,126.18
			h-0.93l-8.61,18.26l-1.05,1.86h20.23l-1.05-1.86L839.59,126.18z"/>
		<path class="st0" d="M972.04,166.42h-3.84l-45.12-38.49v38.49h-16.75V96.65h3.84l45.12,36.98V96.76h16.74V166.42z"/>
		<path class="st0" d="M1068.79,159.44c0,0-7.79,8.49-24.88,8.49c-23.37,0-37.44-16.4-37.44-36.4s14.07-36.4,37.44-36.4
			c17.21,0,24.88,8.49,24.88,8.49l-9.65,12.91c0,0-7.21-5.23-15-5.23c-11.86,0-20.23,8.14-20.23,20.23
			c0,12.09,8.37,20.23,20.23,20.23c9.88,0,15-5.23,15-5.23L1068.79,159.44z"/>
		<path class="st0" d="M1148.68,138.16h-30.7v13.72h38.61v14.54h-55.47V96.65h55.47v14.54h-38.61v13.72h30.7V138.16z"/>
		<path class="st0" d="M1191.47,96.65h32.91c17.68,0,28.95,9.07,28.95,24.3c0,9.77-4.42,16.75-11.63,20.82v1.51l15.7,21.98v1.16
			h-19.19l-13.72-20.35h-16.16v20.35h-16.86V96.65z M1223.68,111.18h-15.35v20.93h15.47c7.79,0,12.09-3.49,12.09-10.47
			C1235.89,114.9,1231.47,111.18,1223.68,111.18z"/>
	</g>
	<path class="st0" d="M451.33,189.38v82.77h816.44v-82.77H451.33z M482.9,253.7h-5.75v-42.05h5.75V253.7z M587.81,253.7h-1.61
		l-29.85-30.2v30.2h-5.75v-42.05h1.61l29.78,29.85v-29.85h5.82V253.7z M668.4,254.68c-10.86,0-15.84-5.12-15.84-5.12l3.15-4.35
		c0,0,4.63,4.07,12.61,4.07c7.08,0,10.09-2.73,10.09-6.66c0-3.57-2.38-5.4-11.07-7.85c-10.09-2.87-14.65-5.96-14.65-12.47
		c0-7.22,5.89-11.56,15.77-11.56c10.51,0,15.14,4.06,15.14,4.06l-3.15,4.77c0,0-4.28-3.43-11.98-3.43c-5.68,0-9.67,2.17-9.67,6.1
		c0,3.15,2.59,4.77,11.07,7.08c11,3.01,14.72,6.73,14.72,13.1C684.59,249.35,679.68,254.68,668.4,254.68z M779.2,216.91h-14.58
		v36.79h-5.75v-36.79h-14.51v-5.26h34.83V216.91z M847.8,253.7h-5.75v-42.05h5.75V253.7z M945.56,216.91h-14.58v36.79h-5.75v-36.79
		h-14.51v-5.26h34.83V216.91z M1043.68,236.04c0,10.93-6.52,18.64-17.94,18.64c-11.28,0-17.94-7.71-17.94-18.64v-24.39h5.75v24.39
		c0,7.5,4.06,13.1,12.19,13.1c8.13,0,12.12-5.61,12.12-13.1v-24.39h5.82V236.04z M1140.74,216.91h-14.58v36.79h-5.75v-36.79h-14.51
		v-5.26h34.83V216.91z M1234.85,216.91h-25.51v13.46h22.15v5.12h-22.15v12.96h25.51v5.26h-31.26v-42.05h31.26V216.91z"/>
</g>
</svg>
